<svg width="36" height="36" viewBox="0 0 36 36" fill="none"
    xmlns="http://www.w3.org/2000/svg">
    <defs>
        <clipPath id="clip0_130_133">
            <rect width="36" height="36" fill="white"/>
        </clipPath>
    </defs>
    <g clip-path="url(#clip0_130_133)">
        <path d="M13.23 25.5L19.5 28.92V33H9C7.335 33 6 31.665 6 30V6C6 5.20435 6.31607 4.44129 6.87868 3.87868C7.44129 3.31607 8.20435 3 9 3H10.5V13.5L14.25 11.25L18 13.5V3H27C27.7956 3 28.5587 3.31607 29.1213 3.87868C29.6839 4.44129 30 5.20435 30 6V18.81L27.75 17.58L13.23 25.5ZM36 25.5L27.75 21L19.5 25.5L27.75 30L36 25.5ZM22.5 28.635V31.635L27.75 34.5L33 31.635V28.635L27.75 31.5L22.5 28.635Z" fill="#EFBD75"/>
    </g>
    
</svg>
