<svg width="34" height="34" viewBox="0 0 34 34" fill="none"
    xmlns="http://www.w3.org/2000/svg">
    <path d="M10.3289 29.5007L2.83333 31.1667L4.49933 23.6711C3.40217 21.6189 2.82983 19.3271 2.83333 17C2.83333 9.17579 9.17575 2.83337 17 2.83337C24.8242 2.83337 31.1667 9.17579 31.1667 17C31.1667 24.8243 24.8242 31.1667 17 31.1667C14.6729 31.1702 12.3811 30.5979 10.3289 29.5007ZM9.91666 17C9.91666 18.8787 10.6629 20.6803 11.9913 22.0087C13.3197 23.3371 15.1214 24.0834 17 24.0834C18.8786 24.0834 20.6803 23.3371 22.0087 22.0087C23.3371 20.6803 24.0833 18.8787 24.0833 17H21.25C21.25 18.1272 20.8022 19.2082 20.0052 20.0052C19.2082 20.8023 18.1272 21.25 17 21.25C15.8728 21.25 14.7918 20.8023 13.9948 20.0052C13.1978 19.2082 12.75 18.1272 12.75 17H9.91666Z" fill="#E76D6D"/>
</svg>
