<svg width="34" height="34" viewBox="0 0 34 34" fill="none"
    xmlns="http://www.w3.org/2000/svg">
    <path d="M17 2.83337C24.8242 2.83337 31.1666 9.17579 31.1666 17C31.1666 24.8243 24.8242 31.1667 17 31.1667C9.17573 31.1667 2.83331 24.8243 2.83331 17C2.83331 9.17579 9.17573 2.83337 17 2.83337ZM19.8333 14.1667H14.1666C13.8197 14.1668 13.4848 14.2941 13.2255 14.5247C12.9662 14.7553 12.8005 15.073 12.7599 15.4176L12.75 15.5834V21.25H14.875V26.9167H19.125V21.25H21.25V15.5834C21.2499 15.2364 21.1225 14.9015 20.892 14.6422C20.6614 14.3829 20.3437 14.2172 19.9991 14.1766L19.8333 14.1667ZM17 7.08337C16.2485 7.08337 15.5279 7.38189 14.9965 7.91324C14.4652 8.44459 14.1666 9.16526 14.1666 9.91671C14.1666 10.6682 14.4652 11.3888 14.9965 11.9202C15.5279 12.4515 16.2485 12.75 17 12.75C17.7514 12.75 18.4721 12.4515 19.0034 11.9202C19.5348 11.3888 19.8333 10.6682 19.8333 9.91671C19.8333 9.16526 19.5348 8.44459 19.0034 7.91324C18.4721 7.38189 17.7514 7.08337 17 7.08337Z" fill="#B173EF"/>
</svg>
