<svg width="36" height="36" viewBox="0 0 36 36" fill="none"
    xmlns="http://www.w3.org/2000/svg">
    <path d="M29.5031 9.77695C29.4297 9.55127 29.2868 9.35459 29.0948 9.21504C28.9029 9.07549 28.6717 9.00022 28.4344 9H25.875V5.0625C25.875 4.44023 25.3723 3.9375 24.75 3.9375H11.25C10.6277 3.9375 10.125 4.44023 10.125 5.0625V9H7.56562C7.32817 8.99968 7.09674 9.07474 6.90468 9.21437C6.71261 9.354 6.56982 9.55098 6.49688 9.77695L3.9375 17.6484V30.9375C3.9375 31.5598 4.44023 32.0625 5.0625 32.0625H30.9375C31.5598 32.0625 32.0625 31.5598 32.0625 30.9375V17.6484L29.5031 9.77695ZM23.2031 22.0781C23.2031 22.2328 23.0766 22.3594 22.9219 22.3594H19.125V26.1562C19.125 26.3109 18.9984 26.4375 18.8438 26.4375H17.1562C17.0016 26.4375 16.875 26.3109 16.875 26.1562V22.3594H13.0781C12.9234 22.3594 12.7969 22.2328 12.7969 22.0781V20.3906C12.7969 20.2359 12.9234 20.1094 13.0781 20.1094H16.875V16.3125C16.875 16.1578 17.0016 16.0312 17.1562 16.0312H18.8438C18.9984 16.0312 19.125 16.1578 19.125 16.3125V20.1094H22.9219C23.0766 20.1094 23.2031 20.2359 23.2031 20.3906V22.0781ZM23.3438 9H12.6562V6.46875H23.3438V9Z" fill="#648BF2"/>
</svg>
