<svg width="36" height="36" viewBox="0 0 36 36" fill="none"
    xmlns="http://www.w3.org/2000/svg">
    <path d="M29.8125 4.5H6.1875C4.4295 4.5 3 5.8455 3 7.5V28.5C3 30.1545 4.4295 31.5 6.1875 31.5H29.8125C31.5705 31.5 33 30.1545 33 28.5V7.5C33 5.8455 31.5705 4.5 29.8125 4.5ZM29.8125 28.5H6.1875C6.102 28.5 6.0435 28.476 6.018 28.476C6.0075 28.476 6.0015 28.479 6 28.488L5.982 7.569C5.9925 7.554 6.06 7.5 6.1875 7.5H29.8125C29.931 7.5015 29.9955 7.542 30 7.512L30.018 28.431C30.0075 28.446 29.94 28.5 29.8125 28.5Z" fill="#EFBD75"/>
    <path d="M9 10.5H18V19.5H9V10.5ZM19.5 22.5H9V25.5H27V22.5H21H19.5ZM21 16.5H27V19.5H21V16.5ZM21 10.5H27V13.5H21V10.5Z" fill="#EFBD75"/>
</svg>
