<svg width="32" height="32" viewBox="0 0 32 32" fill="none"
    xmlns="http://www.w3.org/2000/svg">
    <path d="M26.6667 10.6666H5.33335V7.99996H26.6667V10.6666ZM24 2.66663H8.00002V5.33329H24V2.66663ZM29.3334 16V26.6666C29.3334 27.3739 29.0524 28.0521 28.5523 28.5522C28.0522 29.0523 27.3739 29.3333 26.6667 29.3333H5.33335C4.62676 29.3312 3.94971 29.0496 3.45007 28.5499C2.95043 28.0503 2.6688 27.3732 2.66669 26.6666V16C2.6688 15.2934 2.95043 14.6163 3.45007 14.1167C3.94971 13.617 4.62676 13.3354 5.33335 13.3333H26.6667C27.3733 13.3354 28.0503 13.617 28.55 14.1167C29.0496 14.6163 29.3312 15.2934 29.3334 16ZM18.5694 22.7226L21.6667 20.0746L17.588 19.7333L16 16L14.412 19.7333L10.3334 20.0746L13.4307 22.7226L12.4974 26.6666L16 24.5706L19.5027 26.6666L18.5694 22.7226Z" fill="#B173EF"/>
</svg>
