<svg width="32" height="32" viewBox="0 0 32 32" fill="none"
    xmlns="http://www.w3.org/2000/svg">
    <path d="M26.6667 2.66663C28.1334 2.66663 29.3334 3.86663 29.3334 5.33329V26.6666C29.3334 28.1333 28.1334 29.3333 26.6667 29.3333H25.3334V30.6666H20V29.3333H12V30.6666H6.66669V29.3333H5.33335C3.86669 29.3333 2.66669 28.1333 2.66669 26.6666V5.33329C2.66669 3.86663 3.86669 2.66663 5.33335 2.66663H26.6667ZM22.6667 16C22.6667 14.6666 22.2667 13.3333 21.6 12.2666L23.6 10.2666L21.7334 8.39996L19.7334 10.4C18.6667 9.73329 17.3334 9.33329 16 9.33329C14.6667 9.33329 13.3334 9.73329 12.2667 10.4L10.4 8.39996L8.40002 10.4L10.4 12.4C9.73335 13.3333 9.33335 14.6666 9.33335 16C9.33335 17.3333 9.73335 18.6666 10.4 19.7333L8.40002 21.7333L10.4 23.6L12.4 21.6C13.3334 22.2666 14.6667 22.6666 16 22.6666C17.3334 22.6666 18.6667 22.2666 19.7334 21.6L21.7334 23.6L23.6 21.7333L21.6 19.7333C22.2667 18.6666 22.6667 17.3333 22.6667 16ZM16 12C18.2667 12 20 13.7333 20 16C20 18.2666 18.2667 20 16 20C13.7334 20 12 18.2666 12 16C12 13.7333 13.7334 12 16 12ZM16 18.6666C17.4667 18.6666 18.6667 17.4666 18.6667 16C18.6667 14.5333 17.4667 13.3333 16 13.3333C14.5334 13.3333 13.3334 14.5333 13.3334 16C13.3334 17.4666 14.5334 18.6666 16 18.6666Z" fill="#77A49E"/>
</svg>
