<svg width="36" height="36" viewBox="0 0 36 36" fill="none"
    xmlns="http://www.w3.org/2000/svg">
    <path d="M23.049 5.15698L27.8655 13.5H33V16.5H31.2495L30.114 30.1245C30.0828 30.4993 29.9119 30.8487 29.6352 31.1035C29.3585 31.3583 28.9961 31.4998 28.62 31.5H7.38C7.00387 31.4998 6.64154 31.3583 6.36483 31.1035C6.08812 30.8487 5.91722 30.4993 5.886 30.1245L4.749 16.5H3V13.5H8.133L12.951 5.15698L15.549 6.65698L11.598 13.5H24.4005L20.451 6.65698L23.049 5.15698V5.15698ZM19.5 19.5H16.5V25.5H19.5V19.5ZM13.5 19.5H10.5V25.5H13.5V19.5ZM25.5 19.5H22.5V25.5H25.5V19.5Z" fill="#EF75B7"/>
</svg>
