<svg width="36" height="36" viewBox="0 0 36 36" fill="none"
    xmlns="http://www.w3.org/2000/svg">
    <path d="M18 3C9.72 3 3 9.72 3 18C3 26.28 9.72 33 18 33C26.28 33 33 26.28 33 18C33 9.72 26.28 3 18 3ZM23.415 12.51C25.02 12.51 26.31 13.8 26.31 15.405C26.31 17.01 25.02 18.3 23.415 18.3C21.81 18.3 20.52 17.01 20.52 15.405C20.505 13.8 21.81 12.51 23.415 12.51ZM14.415 10.14C16.365 10.14 17.955 11.73 17.955 13.68C17.955 15.63 16.365 17.22 14.415 17.22C12.465 17.22 10.875 15.63 10.875 13.68C10.875 11.715 12.45 10.14 14.415 10.14ZM14.415 23.835V29.46C10.815 28.335 7.965 25.56 6.705 22.02C8.28 20.34 12.21 19.485 14.415 19.485C15.21 19.485 16.215 19.605 17.265 19.815C14.805 21.12 14.415 22.845 14.415 23.835ZM18 30C17.595 30 17.205 29.985 16.815 29.94V23.835C16.815 21.705 21.225 20.64 23.415 20.64C25.02 20.64 27.795 21.225 29.175 22.365C27.42 26.82 23.085 30 18 30Z" fill="#92AF84"/>
</svg>
