<svg width="40" height="40" viewBox="0 0 40 40" fill="none"
    xmlns="http://www.w3.org/2000/svg">
    <path d="M35 16.6667H28.3333V13.3334L20.8333 10.3334V6.66671H25V3.33337H19.1666V10.3334L11.6666 13.3334V16.6667H4.99998C4.08331 16.6667 3.33331 17.4167 3.33331 18.3334V36.6667H16.6666V28.3334H23.3333V36.6667H36.6666V18.3334C36.6666 17.4167 35.9166 16.6667 35 16.6667ZM13.3333 33.3334H6.66665V28.3334H13.3333V33.3334ZM13.3333 25H6.66665V20H13.3333V25ZM20 13.3334C20.9166 13.3334 21.6666 14.0834 21.6666 15C21.6666 15.9167 20.9166 16.6667 20 16.6667C19.0833 16.6667 18.3333 15.9167 18.3333 15C18.3333 14.0834 19.0833 13.3334 20 13.3334ZM23.3333 25H16.6666V20H23.3333V25ZM33.3333 33.3334H26.6666V28.3334H33.3333V33.3334ZM33.3333 25H26.6666V20H33.3333V25Z" fill="#E68C71"/>
</svg>
