<svg width="32" height="36" viewBox="0 0 32 36" fill="none"
    xmlns="http://www.w3.org/2000/svg">
    <path d="M16 18C20.9426 18 24.9484 14.0567 24.9484 9.19134C24.9484 4.32594 20.9426 0.38269 16 0.38269C11.0573 0.38269 7.0515 4.32594 7.0515 9.19134C7.0515 14.0567 11.0573 18 16 18ZM22.6973 20.2434L19.3557 33.4151L17.1185 24.0559L19.3557 20.2022H12.6443L14.8814 24.0559L12.6443 33.4151L9.3026 20.2434C4.31802 20.4774 0.340149 24.4895 0.340149 29.4512V32.3141C0.340149 34.1377 1.84321 35.6173 3.69583 35.6173H28.3041C30.1567 35.6173 31.6598 34.1377 31.6598 32.3141V29.4512C31.6598 24.4895 27.6819 20.4774 22.6973 20.2434Z" fill="#5DCFB8"/>
</svg>
