<svg width="375" height="812" viewBox="0 0 375 812" fill="none"
    xmlns="http://www.w3.org/2000/svg">
    <defs>
        <linearGradient id="paint0_linear_17_168" x1="9.50002" y1="813" x2="377.5" y2="1.79512e-05" gradientUnits="userSpaceOnUse">
            <stop stop-color="white"/>
            <stop offset="1" stop-color="white" stop-opacity="0.1"/>
        </linearGradient>
    </defs>
    <path opacity="0.1" fill-rule="evenodd" clip-rule="evenodd" d="M-1 787.441L9.81705 793.831L1.37975 798.813L-1 797.297V804.011L11.6559 796.647V806.502L0.838899 813H7.00462L11.6559 810.293V813H14.9011V792.965L-1 783.759V787.441ZM-1 773.904L23.4465 787.983V813H26.6917V786.142L-1 770.114V773.904ZM-1 0V2.27428L3.00231 0H-1ZM-1 760.258L35.1289 781.16V813H38.3741V779.752L-1 756.576V760.258ZM608 107.216V103.425L601.942 99.9599V0H598.697V98.0105L590.152 93.1371V0H586.907V91.296L578.469 86.6391V0H575.224V2.92407L570.14 0H563.65L575.224 6.71453V16.4614L546.667 0H539.853L574.9 20.2519V30.1071L531.632 4.76515V0H528.278V4.76515L519.733 9.7469V0H516.488V11.588L507.942 16.4614V0H504.697V18.4108L496.584 23.2843V0H493.339V25.2336L484.794 30.1071V0H481.549V2.92407L476.248 0H469.758L481.224 6.71453V16.4614L453.316 0H446.718L481.765 20.2519V30.1071L438.497 4.76515V0H435.252V4.76515L425.841 9.7469V0H422.596V11.588L414.05 16.4614V0H410.805V18.4108L402.368 23.2843V0H399.231V25.2336L390.685 30.1071V0H387.44V4.76515L344.172 30.1071V20.2519L378.678 0H372.188L343.631 16.4614V6.71453L355.206 0H348.715L342.009 3.89876L335.302 0H328.596V104.833L320.158 99.9599V0H316.913V98.0105L308.368 93.1371V0H305.123V91.296L296.685 86.6391V0H293.44V4.76515L250.172 30.1071V20.2519L284.786 0H278.188L249.739 16.4614V6.71453L261.313 0H254.715L247.792 3.89876L241.41 0H234.704V104.833L226.158 99.9599V0H222.913V98.0105L214.367 93.1371V0H211.122V91.296L202.793 86.6391V0H199.548V2.92407L194.464 0H187.974L199.548 6.71453V16.4614L170.991 0H164.501L199.548 20.2519V30.1071L155.847 4.76515V0H152.494V4.76515L144.057 9.7469V0H140.812V11.588L132.266 16.4614V0H128.805V18.4108L120.367 23.2843V0H117.122V25.2336L108.577 30.1071V0H105.332V2.92407L100.572 0H94.0819L105.548 6.71453V16.4614L77.0991 0H70.5007L105.548 20.2519V30.1071L61.8471 4.76515V0H58.602V4.76515L50.1646 9.7469V0H46.9195V11.588L38.3741 16.4614V0H35.1289V18.4108L26.6917 23.2843V0H23.4465V25.2336L14.9011 30.1071V0H11.6559V4.76515L-1 12.1295V15.9199L11.6559 8.55562V18.4108L-1 25.7751V29.4573L11.6559 22.2013V32.4897L-1 39.3125V43.3196L11.6559 35.7386V45.5938L-1 52.8499V56.6403L11.6559 49.3843V59.1312L-1 66.4955V70.286L11.6559 62.9217V72.7769L-1 80.0329V83.8234L11.6559 76.459V86.6391L-1 93.6786V97.469L1.59609 95.9528L46.9195 122.161V174.686L38.3741 179.56V127.143L-1 104.292V108.299L35.1289 129.201V181.617L26.6917 186.599V133.857L-1 117.938V121.62L23.4465 135.807V188.224L14.9011 193.205V140.789L-1 131.475V135.265L9.81705 141.655L1.37975 146.528L-1 145.012V151.618L11.6559 144.254V154.109L-1 161.582V165.372L11.6559 158.008V167.863L-1 175.228V178.91L11.6559 171.654V181.401L-1 188.765V192.555L11.6559 185.191V194.938L-1 202.411V205.768L11.6559 198.512V208.259L-1 215.948V219.739L11.6559 212.374V222.229L-1 229.594V233.276L11.6559 226.02V235.767L-1 243.131V246.922L11.6559 239.557V249.088L-1 256.668V260.459L1.59609 259.051L34.0472 277.462L47.4604 285.259V337.676L38.9149 342.658V290.133L17.2808 277.462L-1 267.39V270.747L9.81705 277.137L35.1289 292.407V344.824L26.6917 349.697V296.956L-1 280.927V284.718L23.4465 298.797V351.322L14.9011 356.195V303.778L-1 294.573V298.255L9.81705 304.645L1.37975 309.627L-1 308.11V314.825L11.6559 307.461V317.316L-1 324.897V328.687L11.6559 321.323V331.178L-1 338.218V342.008L11.6559 334.644V344.499L-1 351.863V355.654L11.6559 348.289V358.145L-1 365.401V369.191L11.6559 361.827V371.682L-1 379.046V382.728L11.6559 375.472V385.219L-1 392.584V396.374L11.6559 389.01V398.865L-1 406.229V409.911L11.6559 402.655V412.402L-1 419.767V423.557L1.59609 422.366L46.9195 448.574V501.099L38.3741 505.973V453.231L-1 430.38V434.17L35.1289 454.855V507.38L26.6917 512.254V460.054L-1 444.026V447.816L23.4465 461.895V514.312L14.9011 519.835V466.768L-1 457.563V461.353L9.81705 467.743L1.37975 472.616L-1 471.209V477.923L11.6559 470.559V480.414L-1 487.345V491.136L11.6559 483.88V493.626L-1 501.316V505.106L11.6559 498.175V508.03L-1 514.853V518.644L11.6559 511.388V521.134L-1 528.499V532.289L11.6559 524.925V534.78L-1 542.036V545.827L11.6559 538.462V548.317L-1 555.682V559.472L11.6559 552.325V562.18L-1 569.219V573.01L11.6559 565.645V575.5L-1 582.865V586.655L1.59609 584.814L46.9195 611.023V663.872L38.3741 668.746V616.221L-1 593.478V597.269L35.1289 618.17V670.587L26.6917 675.569V623.044L-1 607.015V610.806L23.4465 624.993V677.41L14.9011 682.283V629.867L-1 620.661V624.452L9.81705 630.841L1.37975 635.715L-1 634.198V640.913L11.6559 633.657V643.404L-1 650.768V654.559L11.6559 647.194V657.05L-1 664.414V668.096L11.6559 660.623V670.37L-1 677.951V682.283L11.6559 674.919V684.774L-1 691.489V695.279L11.6559 688.023V697.77L-1 705.134V708.925L11.6559 701.56V711.416L-1 718.672V722.462L11.6559 714.773V724.52L-1 732.317V736.433L11.6559 729.068V738.924L-1 745.855V749.645L1.59609 748.237L46.9195 774.446V813H50.1646V772.496L4.84121 746.288L13.2785 741.414L58.602 767.623V813H61.8471V810.293L66.6066 813H73.0968L62.2797 806.502V796.647L90.5123 813H96.3535L61.8471 792.965V783.109L105.115 808.343V813H108.36V740.44L116.906 735.566V813H120.151V733.617L128.588 728.743V813H131.833V726.902L140.379 721.921V813H143.624V720.08L152.061 715.206V812.675H155.415V809.968L160.066 812.675H166.556L155.739 806.177V796.322L183.863 812.675H190.354L155.739 792.64V782.785L199.007 808.018V812.675H202.252V796.647L210.69 801.629V812.458H213.935V802.928L222.48 807.802V812.458H226.158V809.751L230.809 812.458H236.975L202.361 792.423H201.495L157.362 766.865L165.799 761.991L211.988 788.741L254.282 813.217H265.099L293.332 796.863V806.719L282.515 813.217H289.005L293.765 810.509V813.217H297.01V796.647L305.447 801.629V812.458H308.692V802.928L317.238 807.802V812.458H320.483V809.751L325.134 812.458H331.732L251.686 766.107L260.124 761.233L342.333 808.776L348.715 812.458H359.532L387.765 796.105V805.961L376.948 812.458H383.546L388.197 809.751V812.458H391.443V792.965L345.146 766.648L353.691 761.775L399.231 787.983V813H402.476V786.142L357.044 759.934L365.482 754.952L410.805 781.16V813H414.05V779.752L368.727 753.544L377.272 748.67L422.596 774.879V813.433H425.841V772.496L380.517 746.288L388.955 741.414L434.278 767.623V813H437.523V810.293L442.283 813H448.773L437.956 806.502V796.647L466.188 813H472.679L437.956 792.965V783.109L481.224 808.343V813H484.469V740.44L493.015 735.566V813H496.584V733.617L505.022 728.743V813H508.267V726.902L516.812 721.921V813H520.057V720.08L528.495 715.206V812.675H531.848V809.968L536.499 812.675H542.99L532.172 806.177V796.322L560.297 812.675H566.787L532.172 792.64V782.785L575.441 808.018V812.675H578.686V796.647L587.123 801.629V812.458H590.368V802.928L598.914 807.802V812.458H602.159V809.751L606.81 812.458H608.216V810.076L578.686 792.965H577.82L533.687 767.406L542.124 762.533L588.313 789.283L608.541 800.979V797.188L589.935 786.358L545.369 760.692L553.915 755.71L599.995 782.46L608.541 787.441V783.651L601.618 779.644L557.16 753.869L565.597 748.995L608.865 773.796V768.922L569.167 745.963L577.712 741.09L608.865 759.175V755.385L602.808 751.811V647.194L608.865 650.768V646.978L534.011 603.658L542.449 598.676L608.865 637.123V633.44L545.694 596.835L554.239 591.962L608.325 623.585V619.795L556.943 590.013L565.381 585.139L608.649 609.94V606.474L568.95 583.515L577.496 578.533L608.649 596.619V592.828L602.591 589.363V484.204L608.649 487.67V483.88L578.469 466.768H577.604L533.47 441.21L541.908 436.336L588.097 462.978L608.325 474.782V470.992L589.719 460.162L545.153 434.387L553.698 429.514L599.779 456.263L608.325 461.137V457.455L601.402 453.339L556.943 427.672L565.381 422.691L608.649 447.599V443.809L568.301 420.2L576.847 415.326L608 433.196V429.514L601.942 425.94V321.106L608 324.68V320.89L578.469 303.778L577.604 303.237L533.146 277.462L541.583 272.588L550.021 277.462L587.772 299.122L608 310.818V307.027L589.395 296.198L556.943 277.137L544.828 270.747L553.374 265.766L573.602 277.462L599.454 292.407L608 297.389V293.598L601.077 289.591L580.092 277.354L556.619 263.816L565.056 258.943L597.507 277.354L608.325 283.743V279.953L603.889 277.354L568.626 256.993L577.171 252.12L608 270.747V266.957L601.942 263.383V158.008L608 161.582V157.792L578.469 140.789H577.604L533.47 115.23L541.908 110.248L588.097 136.998L608.325 148.694V145.012L589.719 134.182L544.828 107.649L553.374 102.776L599.454 129.959L608 134.94V131.15L601.077 127.143L556.619 100.826L565.056 95.9528L608.325 120.862V117.071L568.301 94.1118L576.847 89.13L608 107.216ZM590.152 640.372L598.697 645.353V750.295L590.152 745.313V640.372ZM578.469 633.657L586.907 638.53V743.472L578.469 738.599V633.657ZM590.152 477.382L598.697 482.255V587.197L590.152 582.323V477.382ZM578.469 470.559L586.907 475.432V580.374L578.469 575.5V470.559ZM590.152 314.067L598.697 319.049V423.882L590.152 419.009V314.067ZM578.469 307.244L586.907 312.226V417.167L578.469 412.186V307.244ZM590.152 151.618L598.697 156.492V261.434L590.152 256.56V151.618ZM578.469 144.796L586.907 149.669V254.611L578.469 249.088V144.796ZM573.602 32.4897L551.968 44.9441L529.036 58.698H528.17L482.847 85.3396L474.95 80.4661L519.408 54.691L565.597 28.0494L573.602 32.4897ZM505.562 697.337L459.374 724.087L450.936 719.105L495.394 693.113L541.583 666.472L550.021 671.345L505.562 697.337ZM553.374 673.403L561.811 678.384L517.245 703.943L471.164 730.585L462.619 725.603L507.401 700.153L553.374 673.403ZM493.772 690.514L447.691 717.264L439.146 712.282L469.974 694.521L483.712 686.615L529.793 659.865L538.338 664.739L493.772 690.514ZM380.517 583.298L388.955 578.316L434.278 604.525V657.05L425.841 661.923V609.506L380.517 583.298ZM368.727 590.013L377.597 584.814L422.92 611.023V663.872L414.375 668.746V616.221L368.727 590.013ZM357.044 596.835L365.482 591.962L410.805 618.17V670.587L402.368 675.569V623.044L357.044 596.835ZM342.009 656.075L298.74 630.841L307.178 625.859L350.446 651.201L342.009 656.075ZM340.386 658.891V763.832L331.949 758.959V654.017L340.386 658.891ZM328.596 652.176V757.009L320.158 752.136V647.194L328.596 652.176ZM316.913 645.353V750.295L308.368 745.313V640.372L316.913 645.353ZM157.47 603.658L165.907 598.676L256.554 651.201L248.117 656.075L157.47 603.658ZM246.494 658.891V763.832L237.949 758.959V654.017L246.494 658.891ZM234.704 652.176V757.009L226.158 752.136V647.194L234.704 652.176ZM223.021 645.353V750.295L214.476 745.313V640.372L223.021 645.353ZM211.231 638.964V743.905L202.793 739.032V633.657L211.231 638.964ZM155.847 736.433V726.686L199.115 701.344V711.199L155.847 736.433ZM199.115 714.773V724.52L155.847 749.862V740.007L199.115 714.773ZM155.847 722.679V712.823L178.888 699.503L199.548 687.59V697.337L155.847 722.679ZM154.117 170.354L162.662 175.228L117.988 201.328L72.0151 228.078L63.9023 223.204L109.226 196.887L154.117 170.354ZM108.793 192.88V88.2636L117.339 83.2819V188.224L108.793 192.88ZM120.584 186.058V81.4408L128.805 76.459V181.401L120.584 186.058ZM132.266 179.235V74.618L140.812 69.7445V174.686L132.266 179.235ZM144.057 173.278V67.7951L152.494 62.9217V167.863L144.057 173.278ZM199.548 62.9217V72.7769L156.28 98.0105V88.2636L199.548 62.9217ZM156.28 84.5815V74.618L199.548 49.3843V59.1312L156.28 84.5815ZM199.548 76.5673V86.6391L156.28 111.981V101.801L199.548 76.5673ZM480.791 101.909V111.764L437.523 86.6391V76.459L480.791 101.909ZM437.523 72.8852V62.9217L480.791 88.2636V98.0105L437.523 72.8852ZM480.791 115.447V125.302L437.523 100.068V90.1047L480.791 115.447ZM480.791 129.092V138.948L437.523 113.606V103.642L480.791 129.092ZM480.791 142.63V152.485L437.523 127.251V117.396L480.791 142.63ZM480.791 156.275V166.131L437.523 140.789V130.933L480.791 156.275ZM480.791 169.813V179.668L437.523 154.434V144.579L480.791 169.813ZM480.791 183.458V193.314L437.523 167.972V158.116L480.791 183.458ZM296.685 614.38V604.525L339.953 579.291V589.146L296.685 614.38ZM339.953 592.72V602.575L338.331 603.55L317.238 615.679L296.685 628.134V618.279L339.953 592.72ZM296.685 600.734V590.879L339.953 565.537V575.392L296.685 600.734ZM296.685 587.088V577.233L339.953 552V561.855L296.685 587.088ZM291.818 630.408L283.272 635.281L192.625 583.298L201.171 578.316L291.818 630.408ZM261.422 608.748V558.931L269.967 563.804V614.38L261.422 608.748ZM273.212 615.463V565.645L281.65 570.627V621.203L273.212 615.463ZM107.171 574.526L98.7332 569.652L143.191 543.877L189.38 517.236L197.926 522.109L153.359 547.884L107.171 574.526ZM152.494 552.325V657.266L144.057 662.14V556.981L152.494 552.325ZM140.812 559.147V663.872L132.266 668.746V563.804L140.812 559.147ZM128.805 565.645V670.587L120.367 675.569V570.627L128.805 565.645ZM117.122 572.468V677.41L108.577 682.283V577.342L117.122 572.468ZM61.6307 629.867V620.011L104.899 645.353V655.1L61.6307 629.867ZM104.899 658.891V668.746L61.6307 643.404V633.657L104.899 658.891ZM61.6307 616.221V606.474L104.899 631.708V641.563L61.6307 616.221ZM63.9023 603.658L62.2797 602.684V592.828L80.8851 603.658L105.981 618.17V628.134L63.9023 603.658ZM87.3753 603.658L61.8471 589.146V579.291L103.925 603.658L105.548 604.525V614.38L87.3753 603.658ZM62.2797 575.5V565.645L105.548 590.987V600.842L62.2797 575.5ZM62.2797 561.963V552.325L105.548 577.558V587.413L62.2797 561.963ZM212.096 136.24L256.554 162.448L248.117 167.322L202.793 140.789H201.928L157.794 115.23L166.232 110.248L212.096 136.24ZM168.828 107.649L177.373 102.776L223.778 129.959L268.345 155.734L259.799 160.716L213.718 133.966L168.828 107.649ZM317.346 210.966L338.439 223.204L329.894 228.078L286.625 202.736L295.171 197.862L317.346 210.966ZM296.685 194.938V144.471L305.123 149.344V199.92L296.685 194.938ZM308.368 201.761V151.618L316.913 156.492V207.068L309.882 202.952L308.368 201.761ZM320.158 208.475V158.008L328.596 162.99V213.565L320.158 208.475ZM341.792 279.303L385.061 304.537L376.623 309.518L333.355 284.176L341.792 279.303ZM410.589 208.475V261L402.151 256.127V203.71L447.475 177.502L455.912 182.375L410.589 208.475ZM459.374 184.108L467.919 188.982L422.596 215.19V267.715L414.05 262.733V210.533L459.374 184.108ZM432.656 277.245L434.278 278.22V330.745L425.841 335.618V283.31L415.673 277.462L380.517 257.102L388.955 252.228L432.656 277.245ZM380.517 420.2L388.955 415.326L434.278 441.535V493.951L425.841 498.933V446.408L380.517 420.2ZM368.727 427.023L377.597 422.366L422.92 448.574V501.099L414.375 505.973V453.231L368.727 427.023ZM357.044 433.737L365.482 428.864L410.805 454.855V507.38L402.368 512.254V460.054L357.044 433.737ZM317.67 537.054L338.764 549.292L330.218 554.166L286.95 528.932L295.495 523.95L317.67 537.054ZM296.685 521.134V470.559L305.123 475.432V526.116L296.685 521.134ZM308.368 527.957V477.382L316.913 482.255V532.831L309.882 528.824L308.368 527.957ZM320.158 534.78V484.204L328.596 489.078V539.654L320.158 534.78ZM326.973 556.44L318.536 561.313L275.267 535.971L283.705 531.098L326.973 556.44ZM202.793 466.768H201.928L157.794 441.21L166.232 436.336L212.42 462.978L256.879 488.753L248.441 493.735L202.793 466.768ZM246.061 495.901V600.842L237.949 595.644V490.919L246.061 495.901ZM234.271 489.078V594.02L226.158 589.146V484.204L234.271 489.078ZM222.588 482.255V587.197L214.043 582.323V477.382L222.588 482.255ZM210.798 475.432V580.374L202.361 575.5V470.559L210.798 475.432ZM155.847 573.984V564.129L199.115 538.787V548.642L155.847 573.984ZM199.115 552.325V562.18L155.847 587.413V577.558L199.115 552.325ZM155.847 560.23V550.159L199.115 524.925V534.78L155.847 560.23ZM131.509 537.271L177.698 510.629L186.135 515.503L141.569 541.495L95.4881 567.811L86.9426 563.154L131.509 537.271ZM83.6975 560.988L75.2602 556.115L119.718 530.665L165.907 503.915L174.344 508.788L129.886 534.239L83.6975 560.988ZM155.847 493.951V484.204L199.115 509.438V519.835L155.847 493.951ZM107.171 411.536L98.7332 406.554L143.191 380.779L189.38 354.137L197.926 359.011L176.291 371.465L153.251 384.786H152.386L107.171 411.536ZM152.494 389.01V493.951L144.057 498.933V393.991L152.494 389.01ZM140.812 395.833V500.774L132.266 505.648V400.706L140.812 395.833ZM128.805 402.655V507.597L120.367 512.471V407.529L128.805 402.655ZM117.122 409.37V514.312L108.577 519.293V414.352L117.122 409.37ZM199.332 226.02V235.767L156.064 261.109V251.254L199.332 226.02ZM156.064 247.68V238.258L199.332 212.916V222.771L156.064 247.68ZM199.332 239.774V249.088L156.064 274.321V264.574L199.332 239.774ZM251.145 223.421L259.583 218.439L302.851 243.781L294.414 248.654L251.145 223.421ZM281.433 245.08V295.764L272.996 290.783V239.557L281.433 245.08ZM269.967 238.258V288.833L261.422 283.851V232.734L269.967 238.258ZM293.44 185.733V194.938L284.786 199.92L249.739 220.172V210.425L293.44 185.733ZM250.172 207.392V197.537L293.44 172.304V182.05L250.172 207.392ZM392.632 278.112L369.159 264.574L377.705 259.701L410.156 278.112L423.569 285.909V338.326L415.024 343.308V290.133L392.632 278.112ZM386.142 278.112L410.805 292.407V344.824L402.368 349.697V296.956L368.727 277.462L357.044 270.747L365.482 265.766L386.142 278.112ZM362.669 278.112L399.555 299.771V352.296L391.01 357.17V303.778L345.146 277.462L353.691 272.588L362.669 278.112ZM342.441 330.637L299.173 305.295L307.61 300.421L350.879 325.763L342.441 330.637ZM340.819 333.452V438.394L331.949 433.196V327.929L340.819 333.452ZM329.028 326.63V431.571L320.591 426.698V321.106L329.028 326.63ZM317.346 319.915V424.748L308.8 419.875V314.067L317.346 319.915ZM305.555 313.092V418.034L297.118 413.052V307.461L305.555 313.092ZM310.423 298.58L318.968 293.598L362.237 318.94L353.799 323.814L310.423 298.58ZM344.064 415.001L387.332 389.66V399.515L344.064 424.748V415.001ZM344.064 411.211V400.706L387.332 375.472V385.219L344.064 411.211ZM344.064 397.674V387.818L387.332 362.477V372.332L344.064 397.674ZM344.064 384.028V374.173L387.332 348.939V358.794L344.064 384.028ZM344.064 370.491V360.635L387.332 335.293V345.149L344.064 370.491ZM344.064 356.845V346.557L387.332 321.323V331.178L344.064 356.845ZM344.064 343.308V333.452L387.332 308.11V317.966L344.064 343.308ZM365.698 316.991L322.43 291.757L330.867 286.884L374.135 312.117L365.698 316.991ZM317.887 290.349L296.902 302.479V292.407L321.997 277.787L340.602 266.957V276.812L338.98 277.678L317.887 290.349ZM315.507 278.112L296.902 288.942V279.086L298.524 278.112L340.602 253.853V263.6L315.507 278.112ZM296.902 275.296V265.549L340.17 240.207V249.088L296.902 275.296ZM296.902 261.758V251.254L340.17 226.02V235.767L296.902 261.758ZM306.961 242.265L263.693 217.031L272.239 212.049L315.507 237.391L306.961 242.265ZM318.752 235.55L275.484 210.208L283.921 205.335L327.189 230.568L318.752 235.55ZM258.609 230.893V281.577L251.794 277.57L250.172 276.704V226.02L258.609 230.893ZM285.327 246.38L293.873 251.254V301.829L285.327 296.956V246.38ZM203.226 303.778L201.928 303.237L157.47 277.462L165.907 272.588L174.344 277.462L212.096 299.122L256.554 324.897L248.117 329.77L203.226 303.778ZM246.494 332.803V437.744L237.949 433.196V327.929L246.494 332.803ZM234.704 325.98V430.921L226.158 426.048V321.106L234.704 325.98ZM223.021 319.265V424.099L214.476 419.225V314.067L223.021 319.265ZM211.231 312.442V417.384L202.793 412.402V307.461L211.231 312.442ZM169.152 270.747L177.698 265.766L197.926 277.462L223.778 292.407L268.345 318.182L259.799 323.056L213.718 296.414L181.267 277.354L169.152 270.747ZM249.739 414.352L293.007 389.01V398.865L249.739 424.099V414.352ZM249.739 410.561V400.706L293.007 375.472V385.219L249.739 410.561ZM249.739 397.024V387.169L282.19 368.433L293.007 361.827V371.682L249.739 397.024ZM249.739 383.378V373.523L293.007 348.289V358.145L249.739 383.378ZM249.739 369.841V359.986L293.007 334.644V344.499L249.739 369.841ZM249.739 356.195V346.557L293.007 321.323V331.178L249.739 356.195ZM249.739 342.658V332.803L293.007 307.461V317.316L249.739 342.658ZM271.373 316.341L225.185 289.7L204.524 277.462L181.051 263.924L189.488 259.051L221.939 277.462L236.11 285.693L280.243 311.468L271.373 316.341ZM199.332 305.511V315.366L156.064 290.025V280.278L199.332 305.511ZM199.332 319.157V328.904L156.064 303.67V293.815L199.332 319.157ZM199.332 332.694V342.549L156.064 317.208V307.352L199.332 332.694ZM199.332 346.232V356.087L156.064 330.853V320.998L199.332 346.232ZM225.185 452.581L180.726 426.914L189.38 422.366L235.569 449.116L280.243 474.566L271.806 479.439L225.185 452.581ZM268.453 481.172L259.907 486.154L213.827 459.404L169.26 433.629L177.806 428.755L223.887 455.505L268.453 481.172ZM155.955 437.853V427.997L199.224 402.764V412.511L155.955 437.853ZM155.955 424.207V414.46L199.224 389.118V398.973L155.955 424.207ZM155.955 410.669V400.706L199.224 375.472V385.219L155.955 410.669ZM155.955 397.132V387.277L178.996 373.956L199.656 361.935V371.79L155.955 397.132ZM174.453 345.582L129.886 371.249L83.6975 397.89L75.2602 393.017L119.718 367.242L165.907 340.492L174.453 345.582ZM131.184 374.173L177.373 347.423L185.81 352.405L141.569 377.963L95.4881 404.713L86.9426 399.84L131.184 374.173ZM155.523 480.522V470.667L198.791 496.009V505.756L155.523 480.522ZM155.523 466.877V457.13L198.791 482.363V492.219L155.523 466.877ZM155.523 453.339V443.484L176.4 454.855L199.548 468.285V478.031L155.523 453.339ZM249.739 509.005L293.007 483.771V493.518L249.739 518.86V509.005ZM249.739 522.651L293.007 497.309V507.164L249.739 532.398V522.651ZM293.007 479.981L249.739 505.214V495.468L293.007 470.126V479.981ZM282.839 472.183L236.975 445.975L192.625 420.2L201.171 415.326L270.4 454.855L292.034 467.31L282.839 472.183ZM249.307 427.456L292.575 402.222V411.969L249.307 437.311V427.456ZM270.941 428.431L361.588 480.847L353.15 485.829L262.395 433.304L270.941 428.431ZM274.186 426.589L282.623 421.608L373.27 474.133L364.833 479.006L274.186 426.589ZM285.868 419.767L294.414 414.893L385.061 467.31L376.623 472.183L285.868 419.767ZM342.982 427.456L386.25 402.222V411.969L342.982 437.311V427.456ZM421.947 430.488L413.401 425.615V373.523L458.725 347.315L467.27 352.296L422.596 379.046L421.947 430.488ZM410.156 371.249V423.665L401.719 418.792V366.808L447.042 340.492L455.48 345.474L410.156 371.249ZM399.231 364.859V417.384L390.685 412.402V359.986L436.009 333.777L444.554 338.651L399.231 364.859ZM387.332 167.863L344.064 193.205V183.35L387.332 158.008V167.863ZM387.332 171.654V181.401L344.064 206.743V196.887L387.332 171.654ZM387.332 185.191V194.938L344.064 220.172V210.425L387.332 185.191ZM387.332 198.837V208.584L344.064 233.926V224.07L387.332 198.837ZM387.332 212.374V222.229L344.064 247.463V238.258L387.332 212.374ZM387.332 226.02V235.767L344.064 261.109V251.254L387.332 226.02ZM387.332 239.557V249.088L344.064 274.321V264.574L387.332 239.557ZM340.386 220.28L331.949 215.407V164.831L340.386 169.704V220.28ZM293.44 167.863L250.172 193.205V183.35L293.44 158.008V167.863ZM246.494 169.704V274.646L237.949 269.773V164.831L246.494 169.704ZM234.704 162.99V267.932L226.158 262.95V158.008L234.704 162.99ZM223.021 156.167V261.109L214.476 256.235V151.618L223.021 156.167ZM211.231 149.344V254.286L202.793 249.088V144.471L211.231 149.344ZM244.872 277.462L247.251 278.87L277.215 296.198L291.818 304.645L283.272 309.627L236.975 282.877L227.672 277.462L192.625 257.102L201.171 252.228L244.872 277.462ZM199.548 208.584L156.28 233.926V224.07L199.548 198.837V208.584ZM153.359 221.796L107.171 248.438L98.7332 243.564L143.191 217.789L189.38 191.039L197.926 196.021L153.359 221.796ZM152.494 226.02V330.961L144.057 335.835V230.893L152.494 226.02ZM140.812 232.734V337.676L132.266 342.658V238.258L140.812 232.734ZM128.805 239.557V344.499L120.367 349.372V244.431L128.805 239.557ZM117.122 246.38V351.322L108.577 356.195V251.254L117.122 246.38ZM141.352 214.973L95.4881 241.615L86.9426 236.741L131.509 210.966L177.698 184.108L186.135 188.982L141.352 214.973ZM129.67 208.151L83.6975 234.9L75.2602 229.919L119.718 204.143L165.907 177.502L174.344 182.375L129.67 208.151ZM105.332 251.47V261.325L62.0634 235.983V226.236L105.332 251.47ZM105.332 265.116V274.863L61.8471 249.088V239.232L105.332 265.116ZM103.925 277.462L105.548 278.437V288.292L86.9426 277.462L61.8471 262.95V253.203L103.925 277.462ZM80.4524 277.462L105.548 292.407V302.154L63.9023 277.462L62.2797 276.595V266.74L80.4524 277.462ZM105.548 305.62V315.475L62.2797 290.133V280.386L105.548 305.62ZM105.548 319.265V329.012L62.2797 303.778V293.923L105.548 319.265ZM105.548 332.803V342.658L62.2797 317.316V307.461L105.548 332.803ZM108.036 360.419L154.117 333.777L162.662 338.651L117.988 364.426L72.0151 391.176L63.9023 386.194L94.2982 368.216L108.036 360.419ZM105.548 414.568V424.315L62.2797 399.082V389.226L105.548 414.568ZM105.548 428.106V437.961L62.2797 412.619V402.872L105.548 428.106ZM105.548 441.751V451.498L62.2797 426.265V416.409L105.548 441.751ZM105.548 455.289V465.144L62.2797 439.802V430.055L105.548 455.289ZM105.548 468.934V478.681L62.2797 453.448V443.592L105.548 468.934ZM105.548 482.472V492.327L62.2797 466.985V457.238L105.548 482.472ZM105.548 496.117V505.864L62.2797 480.631V470.775L105.548 496.117ZM108.793 523.3L154.117 496.984L162.662 501.965L117.988 527.524L72.0151 554.166L63.9023 549.292L108.793 523.3ZM155.847 591.204L199.115 565.862V575.717L155.847 601.059V591.204ZM177.481 592.179L268.345 644.379L259.799 649.252L169.152 596.835L177.481 592.179ZM180.726 590.229L189.38 584.814L280.243 637.556L271.806 642.538L180.726 590.229ZM258.609 607.557L251.794 603.658L250.172 602.684V552.325L258.609 557.198V607.557ZM250.172 536.621L293.44 511.388V521.134L284.786 526.116L249.739 546.476L250.172 536.621ZM271.806 537.596L315.074 562.83L306.529 567.811L263.261 542.469L271.806 537.596ZM332.165 541.495V490.919L340.602 495.901V546.476L332.165 541.495ZM251.578 440.56L260.015 435.687L342.225 483.23L350.662 488.103L342.225 493.085L251.578 440.56ZM343.848 577.342L387.116 552.108V561.963L343.848 587.197V577.342ZM343.848 573.659V563.804L387.116 538.462V548.317L343.848 573.659ZM343.848 560.014V550.159L387.116 524.925V534.78L343.848 560.014ZM343.848 546.476V536.621L387.116 511.388V521.134L343.848 546.476ZM343.848 532.831V523.084L387.116 497.742V507.597L343.848 532.831ZM343.848 519.293V509.005L387.116 483.771V493.518L343.848 519.293ZM343.848 505.648V495.901L387.116 470.559V480.414L343.848 505.648ZM345.47 440.668L354.016 435.795L399.231 461.895V514.312L390.577 519.835V466.768L345.47 440.668ZM390.577 523.084L435.901 496.767L444.446 501.749L399.231 527.957V580.374L390.685 575.5L390.577 523.084ZM402.368 529.798L447.691 503.59L456.129 508.463L410.805 534.78V587.197L402.368 582.323V529.798ZM414.05 536.621L459.374 510.413L467.919 515.286L422.596 541.495V594.02L414.05 589.146V536.621ZM437.523 493.951V484.204L480.791 509.438V519.835L437.523 493.951ZM437.523 480.414V470.559L480.791 495.901V505.648L437.523 480.414ZM437.523 466.768V457.021L480.791 482.255V492.11L437.523 466.768ZM437.523 453.231V443.376L480.791 468.718V478.465L437.523 453.231ZM437.523 439.585V429.838L480.791 455.072V464.927L437.523 439.585ZM437.523 426.048V416.193L480.791 441.535V451.282L437.523 426.048ZM437.523 412.402V402.655L480.791 427.889V437.744L437.523 412.402ZM437.523 398.865V389.01L480.791 414.352V424.099L437.523 398.865ZM435.143 384.786H434.278V437.311L425.841 433.196V380.346L471.164 354.137L479.602 359.011L435.143 384.786ZM437.523 330.637V320.781L480.791 346.015V355.87L437.523 330.637ZM437.523 316.991V307.136L480.791 332.478V342.333L437.523 316.991ZM437.523 303.454V293.598L480.791 318.94V328.687L437.523 303.454ZM437.523 289.808V280.061L480.791 305.295V315.15L437.523 289.808ZM439.146 277.137L437.523 276.271V266.415L456.129 277.245L481.224 292.407V302.154L439.146 277.137ZM462.619 277.137L437.523 262.625V252.878L479.602 277.137L481.224 278.112V287.967L462.619 277.137ZM437.523 249.088V239.232L480.791 264.574V274.321L437.523 249.088ZM437.523 235.442V225.695L480.791 250.929V260.784L437.523 235.442ZM435.143 221.471H434.278V273.888L425.841 269.015V217.356L471.164 191.039L479.602 196.021L435.143 221.471ZM444.446 175.228L399.231 201.869V254.286L390.577 249.088V196.887L435.901 170.679L444.446 175.228ZM422.812 174.361L414.267 179.235V127.143L368.727 100.826L377.597 95.9528L422.92 122.161L422.812 174.361ZM411.021 128.659V181.076L402.584 186.058V133.857L357.044 107.649L365.482 102.776L411.021 128.659ZM399.231 135.807V188.224L390.685 193.205V140.789L345.146 114.472L353.691 109.49L399.231 135.807ZM387.332 154.326L344.064 179.56V169.704L387.332 144.471V154.326ZM365.698 153.351L274.835 100.826L283.272 95.9528L373.919 148.37L365.698 153.351ZM362.453 155.192L354.016 160.174L263.044 107.649L271.59 102.776L362.453 155.192ZM342.225 157.142L350.662 162.015L342.225 166.889L251.578 114.472L260.015 109.49L342.225 157.142ZM293.656 154.326L250.388 179.56V169.704L293.656 144.471V154.326ZM272.022 153.351L225.834 126.601L180.943 100.826L189.38 95.9528L235.569 122.703L280.243 148.37L272.022 153.351ZM176.832 129.201L199.981 142.521V152.377L156.713 127.143V117.288L176.832 129.201ZM199.981 156.167V166.022L155.847 140.789V130.933L199.981 156.167ZM199.981 169.704V179.56L156.713 154.326V144.471L199.981 169.704ZM199.981 183.35V193.205L156.713 167.863V158.008L199.981 183.35ZM105.548 98.0105L62.2797 72.7769V62.9217L105.548 88.2636V98.0105ZM105.548 101.801V111.656L61.8471 86.6391V76.459L105.548 101.801ZM105.548 115.338V125.194L62.2797 99.9599V90.1047L105.548 115.338ZM105.548 128.984V138.839L62.2797 113.497V103.642L105.548 128.984ZM105.548 142.521V152.377L62.2797 127.143V117.288L105.548 142.521ZM105.548 156.167V166.022L61.8471 140.789V130.933L105.548 156.167ZM105.548 169.704V179.56L62.2797 154.326V144.471L105.548 169.704ZM105.548 183.35V193.205L62.2797 167.863V158.008L105.548 183.35ZM80.4524 182.375L35.1289 208.584V261.109L26.6917 256.235V203.71L72.0151 177.502L80.4524 182.375ZM38.3741 210.533L83.6975 184.108L92.243 188.982L46.9195 215.407V267.932L38.3741 262.95V210.533ZM50.1646 217.356L95.4881 191.039L103.925 196.021L59.4673 221.796H58.602V274.213L50.1646 269.339V217.356ZM61.8471 321.106L105.115 346.34V356.195L61.8471 330.961V321.106ZM80.4524 345.474L35.1289 371.682V424.099L26.6917 419.225V366.808L72.0151 340.492L80.4524 345.474ZM38.3741 373.523L83.6975 347.315L92.243 352.296L46.9195 379.046V431.463L38.3741 426.589V373.523ZM50.1646 380.346L95.4881 354.137L103.925 359.011L59.4673 384.786H58.602V437.311L50.1646 433.196V380.346ZM61.8471 484.204L105.115 509.438V519.835L61.8471 494.493V484.204ZM80.4524 509.005L35.1289 534.78V587.197L26.6917 582.323V529.798L72.0151 503.59L80.4524 509.005ZM38.3741 537.163L83.6975 510.954L92.243 515.828L46.9195 541.495V594.02L38.3741 589.146V537.163ZM50.1646 543.985L95.4881 517.777L103.925 522.651L59.4673 547.884H58.602V600.409L50.1646 595.644V543.985ZM61.8471 647.736L105.115 673.078V682.283L61.8471 657.05V647.736ZM108.036 687.157L154.117 660.407L162.662 665.28L117.988 690.514L72.0151 717.264L63.9023 712.282L94.7309 694.521L108.036 687.157ZM119.718 693.871L165.907 667.23L174.344 672.103L129.886 697.337L83.6975 724.087L75.2602 719.105L119.718 693.871ZM131.509 700.694L177.698 673.944L186.135 678.926L141.569 703.943L95.4881 730.801L86.9426 725.603L131.509 700.694ZM155.847 657.374V647.519L199.115 672.861V682.283L155.847 657.374ZM155.847 643.729V633.982L199.115 659.216V669.071L155.847 643.729ZM155.847 630.191V620.336L199.115 645.678V655.425L155.847 630.191ZM155.847 616.546V606.474L199.115 631.708V641.563L155.847 616.546ZM249.739 740.765L293.007 715.531V725.278L249.739 750.62V740.765ZM249.739 736.974V727.227L293.007 701.885V711.741L249.739 736.974ZM249.739 723.437V713.582L282.19 694.846L293.007 688.348V698.095L249.739 723.437ZM249.739 709.791V700.044L293.007 674.702V684.557L249.739 709.791ZM249.739 696.254V686.399L293.007 661.165V670.912L249.739 696.254ZM249.739 682.608V672.861L293.007 647.519V657.374L249.739 682.608ZM249.739 669.071V659.216L293.007 633.982V643.729L249.739 669.071ZM284.895 623.369V572.468L293.44 577.342V628.134L284.895 623.369ZM251.362 549.617L259.799 544.635L303.067 569.977L294.63 574.851L251.362 549.617ZM296.685 633.982L305.123 638.855V743.797L296.685 738.924V633.982ZM309.99 624.343L318.536 619.47L361.804 644.703L353.799 649.794L309.99 624.343ZM321.781 617.304L330.218 612.43L373.486 637.664L365.049 642.646L321.781 617.304ZM333.571 610.481L342.009 605.608L385.277 630.95L377.597 635.715L333.571 610.481ZM343.631 591.096L386.899 565.754V575.609L343.631 600.951V591.096ZM425.841 595.969V543.444L471.164 517.236L479.602 522.109L435.143 547.884H434.278V600.409L425.841 595.969ZM437.523 629.975V620.12L480.791 645.462V655.208L437.523 629.975ZM480.791 658.999V668.854L437.523 643.512V633.765L480.791 658.999ZM437.523 616.329V606.474L480.791 631.708V641.563L437.523 616.329ZM437.523 602.792V592.937L480.791 618.279V628.134L437.523 602.792ZM437.523 589.254V579.399L480.791 604.633V614.488L437.523 589.254ZM437.523 575.609V565.754L480.791 591.096V600.951L437.523 575.609ZM437.523 562.071V552.325L480.791 577.558V587.413L437.523 562.071ZM437.523 647.303L480.791 672.645V682.283L437.523 657.05V647.303ZM484.469 682.283V577.342L493.015 572.468V677.41L484.469 682.283ZM496.584 675.569V570.627L505.022 565.645V670.587L496.584 675.569ZM508.267 668.746V563.804L516.812 558.931V663.872L508.267 668.746ZM520.057 661.923V556.981L528.495 552.108V657.05L520.057 661.923ZM529.036 547.884L482.847 574.526L474.95 569.652L519.408 543.877L565.597 517.236L574.143 522.109L529.036 547.884ZM517.245 541.495L471.164 568.244L462.619 563.154L507.401 537.054L553.59 510.413L562.027 515.286L517.245 541.495ZM505.562 534.672L459.374 560.988L450.936 556.115L495.394 530.665L541.583 503.915L550.021 508.788L505.562 534.672ZM493.772 527.957L447.691 554.599L439.146 549.725L484.469 523.517L529.793 497.2L538.338 502.182L493.772 527.957ZM484.469 519.835V414.352L493.015 409.37V514.312L484.469 519.835ZM496.584 512.471V407.529L505.022 402.655V507.597L496.584 512.471ZM508.267 505.648V400.706L516.812 395.833V500.774L508.267 505.648ZM520.057 498.933V393.991L528.495 389.01V493.951L520.057 498.933ZM529.036 384.786H528.17L482.847 411.536L474.95 406.554L519.408 380.779L565.597 354.137L574.143 359.011L552.508 371.465L529.036 384.786ZM517.245 377.963L471.164 404.713L462.619 399.84L507.401 374.064L553.59 347.315L562.027 352.296L517.245 377.963ZM505.562 371.249L459.374 397.89L450.936 393.017L495.394 367.242L541.583 340.492L550.021 345.474L505.562 371.249ZM493.772 364.426L447.691 391.176L439.146 386.194L469.974 368.216L483.712 360.202L529.793 333.561L538.338 338.434L493.772 364.426ZM484.469 356.195V251.254L493.015 246.38V351.322L484.469 356.195ZM496.584 349.372V244.431L505.022 239.557V344.499L496.584 349.372ZM508.267 342.658V238.258L516.812 233.276V338.218L508.267 342.658ZM519.733 335.727V230.893L528.17 226.02V330.961L519.733 335.727ZM529.036 221.796L482.847 248.438L474.95 243.564L519.408 217.789L565.597 191.039L574.143 196.021L529.036 221.796ZM517.245 214.973L471.164 241.615L462.619 236.741L507.401 210.966L553.374 184.108L561.811 188.982L517.245 214.973ZM505.562 208.151L459.374 234.9L450.936 229.919L495.394 204.143L541.583 177.502L550.021 182.375L505.562 208.151ZM493.772 201.328L447.691 228.078L439.146 223.204L484.469 196.887L529.793 170.679L538.338 175.553L493.772 201.328ZM484.469 193.205V88.2636L493.015 83.2819V188.224L484.469 193.205ZM496.584 186.382V81.4408L505.022 76.459V181.401L496.584 186.382ZM508.267 179.56V74.618L516.812 69.7445V174.686L508.267 179.56ZM519.733 173.278V67.7951L528.17 62.9217V167.863L519.733 173.278ZM561.487 26.1L517.245 51.8752L471.164 78.625L462.619 73.6433L507.401 47.9764L553.374 21.6598L561.487 26.1ZM549.696 19.3855L505.562 45.0523L459.374 71.8022L450.936 66.9287L495.394 41.1536L541.583 14.4038L549.696 19.3855ZM483.712 34.3308L529.793 7.58092L538.338 12.5627L493.772 38.3378L447.691 64.9794L439.146 60.1059L469.974 42.2366L483.712 34.3308ZM479.602 32.4897L435.143 58.698H434.278V111.223L425.841 106.241V54.1495L471.164 27.9411L479.602 32.4897ZM467.919 25.6668L422.596 52.4167V104.833L414.05 99.9599V47.4349L459.374 21.6598L467.919 25.6668ZM456.129 18.9523L410.805 45.5938V98.0105L402.368 93.1371V40.6121L447.691 14.4038L456.129 18.9523ZM390.577 33.8976L435.901 7.58092L444.446 12.5627L399.231 38.771V91.296L390.577 86.6391V33.8976ZM388.955 89.13L434.278 115.338V167.863L425.841 172.737V120.32L380.517 94.1118L388.955 89.13ZM343.631 33.8976L386.899 8.55562V18.4108L343.631 43.3196V33.8976ZM343.631 47.4349L386.899 22.2013V32.4897L343.631 57.8316V47.4349ZM343.631 61.0806L386.899 35.7386V45.5938L343.631 70.8275V61.0806ZM343.631 74.618L386.899 49.3843V59.1312L343.631 84.4732V74.618ZM343.631 88.2636L386.899 62.9217V72.7769L343.631 98.0105V88.2636ZM343.631 101.801L386.899 76.459V86.6391L343.631 111.981V101.801ZM331.949 1.73278L340.386 6.71453V111.656L331.949 106.674V1.73278ZM295.063 89.13L385.71 141.655L377.272 146.528L286.517 94.1118L295.063 89.13ZM249.739 33.8976L293.007 8.55562V18.4108L249.739 43.3196V33.8976ZM249.739 47.4349L293.007 22.2013V32.4897L249.739 57.8316V47.4349ZM249.739 61.0806L282.19 42.2366L293.007 35.7386V45.5938L249.739 70.8275V61.0806ZM249.739 74.618L293.007 49.3843V59.1312L249.739 84.4732V74.618ZM249.739 88.2636L293.007 62.9217V72.7769L249.739 98.0105V88.2636ZM249.739 101.801L293.007 76.459V86.6391L249.739 111.981V101.801ZM237.949 1.73278L246.494 6.71453V111.656L237.949 106.674V1.73278ZM201.171 89.13L270.4 129.201L292.034 141.655L283.488 146.528L236.975 119.887L192.625 94.1118L201.171 89.13ZM199.548 45.8104L156.28 71.0441V61.2972L178.888 47.6515L199.548 35.7386V45.8104ZM197.926 32.4897L176.291 44.9441L153.359 58.698H152.494L107.171 85.3396L98.7332 80.4661L143.191 54.691L189.38 28.0494L197.926 32.4897ZM186.135 26.1L141.569 51.8752L95.4881 78.625L86.9426 73.6433L131.509 47.9764L177.698 21.6598L186.135 26.1ZM174.344 19.3855L129.886 45.0523L83.6975 71.8022L75.2602 66.9287L119.718 41.1536L165.907 14.4038L174.344 19.3855ZM108.036 34.3308L154.117 7.58092L162.662 12.5627L117.988 38.3378L72.0151 64.9794L63.9023 60.1059L94.2982 42.2366L108.036 34.3308ZM103.925 32.4897L59.4673 58.698H58.602V111.223L50.1646 106.241V54.1495L95.4881 28.0494L103.925 32.4897ZM92.243 26.1L46.9195 52.4167V104.833L38.3741 99.9599V47.4349L83.6975 21.6598L92.243 26.1ZM80.4524 19.3855L35.1289 45.5938V98.0105L26.6917 93.1371V40.6121L72.0151 14.4038L80.4524 19.3855ZM14.9011 33.8976L60.2245 7.58092L68.77 12.5627L23.4465 38.771V91.296L14.9011 86.6391V33.8976ZM4.84121 94.1118L13.2785 89.13L58.602 115.338V167.863L50.1646 173.278V120.32L4.84121 94.1118ZM14.9011 196.887L60.2245 170.679L68.77 175.553L23.4465 201.869V254.286L14.9011 249.088V196.887ZM39.9966 277.462L4.84121 257.102L13.2785 252.228L56.5467 277.462L58.1693 278.437V330.961L50.1646 335.727V283.31L39.9966 277.462ZM14.9011 359.986L60.2245 333.777L68.77 338.651L23.4465 364.859V417.384L14.9011 412.402V359.986ZM4.84121 420.2L13.2785 415.326L58.602 441.535V493.951L50.1646 498.933V446.408L4.84121 420.2ZM14.9011 523.084L60.2245 496.767L68.77 501.749L23.4465 527.957V580.374L14.9011 575.5V523.084ZM4.84121 583.298L13.2785 578.316L56.5467 603.658L58.1693 604.525V657.05L49.732 661.923V609.506L4.84121 583.298ZM23.4465 743.472L14.9011 738.599V686.074L60.2245 659.865L68.77 664.739L23.4465 691.055V743.472ZM35.1289 750.295L26.6917 745.313V693.113L72.0151 666.905L80.4524 671.778L35.1289 697.77V750.295ZM46.9195 757.009L38.3741 752.136V699.719L83.6975 673.403L92.243 678.384L46.9195 704.593V757.009ZM59.4673 710.874H58.602V763.291L50.1646 758.417V706.434L95.4881 680.226L103.925 685.207L59.4673 710.874ZM105.548 804.661L61.8471 779.752V769.897L105.115 795.239L105.548 804.661ZM105.548 791.015L62.2797 765.782V755.927L105.548 781.16V791.015ZM105.548 777.478L62.2797 752.136V742.281L105.548 767.623V777.478ZM105.548 763.832L62.2797 738.599V728.743L105.548 754.085V763.832ZM105.548 750.295L62.2797 724.953V714.773L105.548 740.007V750.295ZM153.359 710.874H152.494L107.171 737.624L98.7332 732.751L143.191 706.975L189.38 680.226L197.926 685.207L176.291 697.553L153.359 710.874ZM176.4 781.485L199.548 794.806V804.661L155.847 779.752V769.897L176.4 781.485ZM155.847 763.832V754.085L199.115 728.743V738.599L155.847 763.832ZM259.799 812.242L213.718 785.492L169.152 759.825L177.698 754.843L223.778 781.593L268.345 807.368L259.799 812.242ZM271.59 805.419L225.401 778.778L180.943 753.002L189.38 748.129L235.569 774.771L280.243 800.654L271.59 805.419ZM270.4 781.377L292.034 793.723L283.488 798.705L236.975 772.063L192.625 746.288L201.171 741.414L270.4 781.377ZM249.739 763.724V753.977L293.007 728.635V738.49L249.739 763.724ZM353.799 812.242L263.044 759.825L271.59 754.843L362.237 807.368L353.799 812.242ZM365.482 805.419L274.835 753.111L283.272 748.237L373.919 800.654L365.482 805.419ZM385.71 793.723L377.272 798.705L286.517 746.18L295.063 741.306L385.71 793.723ZM387.332 738.49L344.064 763.724V753.977L387.332 728.635V738.49ZM387.332 724.845L344.064 750.187V740.331L387.332 715.098V724.845ZM387.332 711.307L344.064 736.541V726.794L387.332 701.452V711.307ZM387.332 697.662L344.064 723.004V713.148L387.332 687.915V697.662ZM387.332 684.124L344.064 709.358V699.611L387.332 674.269V684.124ZM387.332 670.479L344.064 695.821V685.965L387.332 660.732V670.479ZM387.332 656.941L344.064 682.175V672.428L387.332 647.086V656.941ZM387.332 643.296L344.064 668.638V658.782L387.332 633.549V643.296ZM345.146 603.658L353.691 598.676L399.231 624.993V677.41L390.577 682.283V629.867L345.146 603.658ZM399.231 743.472L390.685 738.599V686.074L436.009 659.865L444.554 664.739L399.231 691.055V743.472ZM410.913 750.295L402.476 745.313V693.113L447.799 666.905L456.237 671.778L410.913 697.987V750.295ZM422.704 757.009L414.158 752.136V699.719L459.482 673.403L468.027 678.384L422.704 704.593V757.009ZM435.252 710.874H434.386V763.291L425.949 758.417V706.434L471.272 680.226L479.71 685.207L435.252 710.874ZM481.332 804.661L438.064 779.319V769.464L481.332 794.806V804.661ZM481.332 791.015L438.064 765.782V755.927L481.332 781.16V791.015ZM481.332 777.478L438.064 752.136V742.281L481.332 767.623V777.478ZM481.332 763.832L438.064 738.599V728.743L481.332 754.085V763.832ZM481.332 750.295L438.064 724.953V714.773L481.332 740.007V750.295ZM529.036 710.874H528.17L482.847 737.082L474.95 732.751L519.408 706.975L565.597 680.226L574.143 685.207L552.508 697.553L529.036 710.874ZM552.076 781.485L575.224 794.806V804.661L531.956 779.319V769.464L552.076 781.485ZM575.224 738.165L531.956 763.399V753.652L575.224 728.31V738.165ZM575.224 724.52L531.956 749.862V740.007L575.224 714.773V724.52ZM575.224 710.982L531.956 736.216V726.469L575.224 701.127V710.982ZM575.224 697.337L531.956 722.679V712.823L554.996 699.503L575.657 687.59L575.224 697.337ZM575.224 681.85L531.956 656.616V646.761L575.224 672.103V681.85ZM575.224 668.313L531.956 642.971V633.224L575.224 658.457V668.313ZM575.224 654.667L531.956 629.433V619.578L575.224 644.92V654.667ZM575.224 631.274V641.13L531.956 615.788V606.474L575.224 631.274ZM575.224 575.067L531.956 600.409V590.554L575.224 565.212V575.067ZM575.224 561.53L531.956 586.764V576.908L575.224 551.675V561.53ZM575.224 547.884L531.956 573.226V563.371L575.224 538.029V547.884ZM575.224 534.347L531.956 559.581V550.159L575.224 524.925V534.347ZM575.224 518.86L531.956 493.518V483.771L575.224 509.005V518.86ZM575.224 505.214L531.956 479.981V470.126L575.224 495.468V505.214ZM575.224 491.677L531.956 466.335V456.588L575.224 481.822V491.677ZM552.076 454.855L575.224 468.285V478.031L531.956 452.798V442.943L552.076 454.855ZM575.224 411.536L531.956 436.878V427.023L575.224 401.789V411.536ZM575.224 397.999L531.956 423.232V413.485L575.224 388.143V397.999ZM575.224 384.353L531.956 409.695V400.706L575.224 375.472V384.353ZM575.224 370.816L531.956 396.157V386.302L554.996 372.981L575.657 360.96L575.224 370.816ZM575.224 355.329L531.956 330.095V320.24L575.224 345.474V355.329ZM575.224 341.791L531.956 316.449V306.594L575.224 331.936V341.791ZM575.224 328.146L531.956 302.912V293.057L575.224 318.399V328.146ZM575.224 304.753V314.608L531.956 289.266V279.52L575.224 304.753ZM575.224 248.546L531.956 273.78V264.033L575.224 238.691V248.546ZM575.224 234.9L531.956 260.242V251.254L575.224 226.02V234.9ZM575.224 221.363L531.956 246.597V238.258L575.224 212.916V221.363ZM575.224 207.717L531.956 233.059V223.204L575.224 197.97V207.717ZM575.224 192.339L531.956 166.997V157.142L575.224 182.484V192.339ZM575.224 178.693L531.956 153.46V143.604L575.224 168.838V178.693ZM575.224 165.156L531.956 139.814V129.959L575.224 155.301V165.156ZM552.076 128.334L575.224 141.655V151.51L531.956 126.277V116.421L552.076 128.334ZM575.224 85.0147L531.956 110.357V101.801L575.224 76.459V85.0147ZM575.224 71.4773L531.956 96.7109V86.964L575.224 61.6221V71.4773ZM575.224 57.8316L531.956 83.1736V74.618L575.224 49.3843V57.8316ZM575.224 44.2943L531.956 69.5279V59.781L554.564 47.6515L575.224 35.7386V44.2943Z" fill="url(#paint0_linear_17_168)"/>
</svg>
