<svg width="22" height="18" viewBox="0 0 22 18" fill="none"
    xmlns="http://www.w3.org/2000/svg">
    <path d="M0.785767 5.40085L10.6788 10.5461C10.778 10.5977 10.8882 10.6246 11.0001 10.6246C11.1119 10.6246 11.2221 10.5977 11.3213 10.5461L21.2143 5.40178V14.3393C21.2144 15.1101 20.9195 15.8518 20.3901 16.4121C19.8607 16.9724 19.1369 17.3089 18.3673 17.3525L18.1965 17.3571H3.80362C3.03278 17.3572 2.29114 17.0623 1.73084 16.5329C1.17054 16.0035 0.834051 15.2797 0.79041 14.5101L0.785767 14.3393V5.40085ZM3.80362 0.642853H18.1965C18.9673 0.642802 19.709 0.937724 20.2693 1.46712C20.8296 1.99651 21.1661 2.72025 21.2097 3.48985L21.2143 3.66071V3.83157L11.0001 9.143L0.785767 3.83157V3.66071C0.785716 2.88987 1.08064 2.14823 1.61003 1.58792C2.13943 1.02762 2.86316 0.691137 3.63277 0.647496L3.80362 0.642853H18.1965H3.80362Z" fill="#868686"/>
</svg>
